<svg height="512pt" viewBox="0 0 512 512" width="512pt" xmlns="http://www.w3.org/2000/svg"><path d="m406 332.820312-60 89.589844 60 89.589844h106v-60c0-61.433594-46.40625-112.222656-106-119.179688zm0 0" fill="#0a77e8"/><path d="m392 332h-19.796875l-176.203125 60 60 120h150v-179.179688c-4.59375-.535156-9.265625-.820312-14-.820312zm0 0" fill="#0f9af0"/><path d="m0 452v60h106l60-89.589844-60-89.589844c-59.59375 6.957032-106 57.746094-106 119.179688zm0 0" fill="#0f9af0"/><path d="m139.796875 332h-19.796875c-4.734375 0-9.40625.285156-14 .820312v179.179688h150v-120zm0 0" fill="#13bdf7"/><path d="m372.203125 332h-116.203125l-30 45 30 45c55.8125 0 102.847656-38.300781 116.203125-90zm0 0" fill="#fdad86"/><path d="m216 24.441406 40 277.558594c66.167969 0 120-53.832031 120-120v-62zm0 0" fill="#fdad86"/><path d="m183.503906 24.441406c-28.84375 21.9375-47.503906 56.605469-47.503906 95.558594v62c0 66.167969 53.832031 120 120 120v-277.558594zm0 0" fill="#fdd396"/><path d="m256 0-30 55.617188 30 55.617187c13.902344 5.648437 29.09375 8.765625 45 8.765625h75c0-66.167969-53.832031-120-120-120zm0 0" fill="#b23c42"/><path d="m256 111.234375v-111.234375c-27.214844 0-52.339844 9.113281-72.496094 24.441406 8.207032 39.492188 35.878906 71.929688 72.496094 86.792969zm0 0" fill="#d55533"/><path d="m256 422v-90h-116.203125c13.355469 51.699219 60.390625 90 116.203125 90zm0 0" fill="#fdd396"/></svg>
